<svg xmlns="http://www.w3.org/2000/svg" viewBox="0 0 240 60" width="240" height="60">

  <g transform="translate(6, 12)">
    <path d="M18 4 C12 4 8 8 6 14 C4 13 2 13 1 14 C2 16 4 17 6 17 C6 22 10 26 16 27 L28 27 C32 27 34 25 34 22 C34 20 32 18 30 18 C30 14 28 10 24 8 L28 4 Z" fill="#2E75B6"></path>
    <circle cx="14" cy="11" r="1.4" fill="#F5F5F5"></circle>

    <path d="M30 20 Q36 18 40 22" stroke="#385723" stroke-width="1.6" fill="none" stroke-linecap="round"></path>
    <ellipse cx="36" cy="20" rx="2" ry="1.2" fill="#385723" transform="rotate(-25 36 20)"></ellipse>
    <ellipse cx="39" cy="22" rx="2" ry="1.2" fill="#385723" transform="rotate(20 39 22)"></ellipse>
  </g>

  <text x="58" y="32" font-family="Arial, sans-serif" font-weight="700" font-size="20" fill="#2E75B6" letter-spacing="-0.3">Linaje</text>
  <text x="122" y="32" font-family="Arial, sans-serif" font-weight="700" font-size="20" fill="#385723" letter-spacing="-0.3">Santo</text>
  <text x="58" y="47" font-family="Arial, sans-serif" font-weight="400" font-size="9" fill="#666" letter-spacing="1.8">SISTEMA DE ASISTENCIA</text>
</svg>
